<mxfile host="app.diagrams.net" agent="Mozilla/5.0 (X11; Linux x86_64) AppleWebKit/537.36 (KHTML, like Gecko) Chrome/131.0.0.0 Safari/537.36" version="26.0.4">
  <diagram id="R2lEEEUBdFMjLlhIrx00" name="Page-1">
    <mxGraphModel dx="1422" dy="1418" grid="1" gridSize="10" guides="1" tooltips="1" connect="1" arrows="1" fold="1" page="1" pageScale="1" pageWidth="850" pageHeight="1100" math="0" shadow="0" extFonts="Permanent Marker^https://fonts.googleapis.com/css?family=Permanent+Marker">
      <root>
        <mxCell id="0" />
        <mxCell id="1" parent="0" />
        <mxCell id="qHsrdiLQJ5oVwHGukiHc-57" value="" style="rounded=1;whiteSpace=wrap;html=1;fillColor=none;dashed=1;strokeWidth=3;strokeColor=#4A4A4A;" vertex="1" parent="1">
          <mxGeometry x="-70" y="170" width="640" height="740" as="geometry" />
        </mxCell>
        <mxCell id="qHsrdiLQJ5oVwHGukiHc-58" value="" style="rounded=1;whiteSpace=wrap;html=1;fillColor=none;dashed=1;strokeWidth=3;strokeColor=#4A4A4A;" vertex="1" parent="1">
          <mxGeometry x="-100" y="10" width="1050" height="930" as="geometry" />
        </mxCell>
        <mxCell id="C-vyLk0tnHw3VtMMgP7b-2" value="User" style="shape=table;startSize=30;container=1;collapsible=1;childLayout=tableLayout;fixedRows=1;rowLines=0;fontStyle=1;align=center;resizeLast=1;" parent="1" vertex="1">
          <mxGeometry x="640" y="70" width="250" height="160" as="geometry" />
        </mxCell>
        <mxCell id="C-vyLk0tnHw3VtMMgP7b-3" value="" style="shape=partialRectangle;collapsible=0;dropTarget=0;pointerEvents=0;fillColor=none;points=[[0,0.5],[1,0.5]];portConstraint=eastwest;top=0;left=0;right=0;bottom=1;" parent="C-vyLk0tnHw3VtMMgP7b-2" vertex="1">
          <mxGeometry y="30" width="250" height="30" as="geometry" />
        </mxCell>
        <mxCell id="C-vyLk0tnHw3VtMMgP7b-4" value="PK" style="shape=partialRectangle;overflow=hidden;connectable=0;fillColor=none;top=0;left=0;bottom=0;right=0;fontStyle=1;" parent="C-vyLk0tnHw3VtMMgP7b-3" vertex="1">
          <mxGeometry width="30" height="30" as="geometry">
            <mxRectangle width="30" height="30" as="alternateBounds" />
          </mxGeometry>
        </mxCell>
        <mxCell id="C-vyLk0tnHw3VtMMgP7b-5" value="id integer NOT NULL " style="shape=partialRectangle;overflow=hidden;connectable=0;fillColor=none;top=0;left=0;bottom=0;right=0;align=left;spacingLeft=6;fontStyle=5;" parent="C-vyLk0tnHw3VtMMgP7b-3" vertex="1">
          <mxGeometry x="30" width="220" height="30" as="geometry">
            <mxRectangle width="220" height="30" as="alternateBounds" />
          </mxGeometry>
        </mxCell>
        <mxCell id="C-vyLk0tnHw3VtMMgP7b-6" value="" style="shape=partialRectangle;collapsible=0;dropTarget=0;pointerEvents=0;fillColor=none;points=[[0,0.5],[1,0.5]];portConstraint=eastwest;top=0;left=0;right=0;bottom=0;" parent="C-vyLk0tnHw3VtMMgP7b-2" vertex="1">
          <mxGeometry y="60" width="250" height="80" as="geometry" />
        </mxCell>
        <mxCell id="C-vyLk0tnHw3VtMMgP7b-7" value="" style="shape=partialRectangle;overflow=hidden;connectable=0;fillColor=none;top=0;left=0;bottom=0;right=0;" parent="C-vyLk0tnHw3VtMMgP7b-6" vertex="1">
          <mxGeometry width="30" height="80" as="geometry">
            <mxRectangle width="30" height="80" as="alternateBounds" />
          </mxGeometry>
        </mxCell>
        <mxCell id="C-vyLk0tnHw3VtMMgP7b-8" value="first_name VARCHAR(40)&#xa;last_name VARCHAR(40)&#xa;age integer&#xa;sex VARCHAR(1)&#xa;city VARCHAR(40)" style="shape=partialRectangle;overflow=hidden;connectable=0;fillColor=none;top=0;left=0;bottom=0;right=0;align=left;spacingLeft=6;" parent="C-vyLk0tnHw3VtMMgP7b-6" vertex="1">
          <mxGeometry x="30" width="220" height="80" as="geometry">
            <mxRectangle width="220" height="80" as="alternateBounds" />
          </mxGeometry>
        </mxCell>
        <mxCell id="C-vyLk0tnHw3VtMMgP7b-9" value="" style="shape=partialRectangle;collapsible=0;dropTarget=0;pointerEvents=0;fillColor=none;points=[[0,0.5],[1,0.5]];portConstraint=eastwest;top=0;left=0;right=0;bottom=0;" parent="C-vyLk0tnHw3VtMMgP7b-2" vertex="1">
          <mxGeometry y="140" width="250" height="20" as="geometry" />
        </mxCell>
        <mxCell id="C-vyLk0tnHw3VtMMgP7b-10" value="" style="shape=partialRectangle;overflow=hidden;connectable=0;fillColor=none;top=0;left=0;bottom=0;right=0;" parent="C-vyLk0tnHw3VtMMgP7b-9" vertex="1">
          <mxGeometry width="30" height="20" as="geometry">
            <mxRectangle width="30" height="20" as="alternateBounds" />
          </mxGeometry>
        </mxCell>
        <mxCell id="C-vyLk0tnHw3VtMMgP7b-11" value="" style="shape=partialRectangle;overflow=hidden;connectable=0;fillColor=none;top=0;left=0;bottom=0;right=0;align=left;spacingLeft=6;" parent="C-vyLk0tnHw3VtMMgP7b-9" vertex="1">
          <mxGeometry x="30" width="220" height="20" as="geometry">
            <mxRectangle width="220" height="20" as="alternateBounds" />
          </mxGeometry>
        </mxCell>
        <mxCell id="qHsrdiLQJ5oVwHGukiHc-2" value="Id" style="shape=table;startSize=30;container=1;collapsible=1;childLayout=tableLayout;fixedRows=1;rowLines=0;fontStyle=1;align=center;resizeLast=1;" vertex="1" parent="1">
          <mxGeometry x="640" y="240" width="250" height="120" as="geometry" />
        </mxCell>
        <mxCell id="qHsrdiLQJ5oVwHGukiHc-3" value="" style="shape=partialRectangle;collapsible=0;dropTarget=0;pointerEvents=0;fillColor=none;points=[[0,0.5],[1,0.5]];portConstraint=eastwest;top=0;left=0;right=0;bottom=1;" vertex="1" parent="qHsrdiLQJ5oVwHGukiHc-2">
          <mxGeometry y="30" width="250" height="30" as="geometry" />
        </mxCell>
        <mxCell id="qHsrdiLQJ5oVwHGukiHc-4" value="PK" style="shape=partialRectangle;overflow=hidden;connectable=0;fillColor=none;top=0;left=0;bottom=0;right=0;fontStyle=1;" vertex="1" parent="qHsrdiLQJ5oVwHGukiHc-3">
          <mxGeometry width="30" height="30" as="geometry">
            <mxRectangle width="30" height="30" as="alternateBounds" />
          </mxGeometry>
        </mxCell>
        <mxCell id="qHsrdiLQJ5oVwHGukiHc-5" value="id integer NOT NULL " style="shape=partialRectangle;overflow=hidden;connectable=0;fillColor=none;top=0;left=0;bottom=0;right=0;align=left;spacingLeft=6;fontStyle=5;" vertex="1" parent="qHsrdiLQJ5oVwHGukiHc-3">
          <mxGeometry x="30" width="220" height="30" as="geometry">
            <mxRectangle width="220" height="30" as="alternateBounds" />
          </mxGeometry>
        </mxCell>
        <mxCell id="qHsrdiLQJ5oVwHGukiHc-6" value="" style="shape=partialRectangle;collapsible=0;dropTarget=0;pointerEvents=0;fillColor=none;points=[[0,0.5],[1,0.5]];portConstraint=eastwest;top=0;left=0;right=0;bottom=0;" vertex="1" parent="qHsrdiLQJ5oVwHGukiHc-2">
          <mxGeometry y="60" width="250" height="40" as="geometry" />
        </mxCell>
        <mxCell id="qHsrdiLQJ5oVwHGukiHc-7" value="" style="shape=partialRectangle;overflow=hidden;connectable=0;fillColor=none;top=0;left=0;bottom=0;right=0;" vertex="1" parent="qHsrdiLQJ5oVwHGukiHc-6">
          <mxGeometry width="30" height="40" as="geometry">
            <mxRectangle width="30" height="40" as="alternateBounds" />
          </mxGeometry>
        </mxCell>
        <mxCell id="qHsrdiLQJ5oVwHGukiHc-8" value="shardnum integer" style="shape=partialRectangle;overflow=hidden;connectable=0;fillColor=none;top=0;left=0;bottom=0;right=0;align=left;spacingLeft=6;" vertex="1" parent="qHsrdiLQJ5oVwHGukiHc-6">
          <mxGeometry x="30" width="220" height="40" as="geometry">
            <mxRectangle width="220" height="40" as="alternateBounds" />
          </mxGeometry>
        </mxCell>
        <mxCell id="qHsrdiLQJ5oVwHGukiHc-9" value="" style="shape=partialRectangle;collapsible=0;dropTarget=0;pointerEvents=0;fillColor=none;points=[[0,0.5],[1,0.5]];portConstraint=eastwest;top=0;left=0;right=0;bottom=0;" vertex="1" parent="qHsrdiLQJ5oVwHGukiHc-2">
          <mxGeometry y="100" width="250" height="20" as="geometry" />
        </mxCell>
        <mxCell id="qHsrdiLQJ5oVwHGukiHc-10" value="" style="shape=partialRectangle;overflow=hidden;connectable=0;fillColor=none;top=0;left=0;bottom=0;right=0;" vertex="1" parent="qHsrdiLQJ5oVwHGukiHc-9">
          <mxGeometry width="30" height="20" as="geometry">
            <mxRectangle width="30" height="20" as="alternateBounds" />
          </mxGeometry>
        </mxCell>
        <mxCell id="qHsrdiLQJ5oVwHGukiHc-11" value="" style="shape=partialRectangle;overflow=hidden;connectable=0;fillColor=none;top=0;left=0;bottom=0;right=0;align=left;spacingLeft=6;" vertex="1" parent="qHsrdiLQJ5oVwHGukiHc-9">
          <mxGeometry x="30" width="220" height="20" as="geometry">
            <mxRectangle width="220" height="20" as="alternateBounds" />
          </mxGeometry>
        </mxCell>
        <mxCell id="qHsrdiLQJ5oVwHGukiHc-29" style="edgeStyle=orthogonalEdgeStyle;rounded=0;orthogonalLoop=1;jettySize=auto;html=1;entryX=0.5;entryY=0;entryDx=0;entryDy=0;" edge="1" parent="1" source="qHsrdiLQJ5oVwHGukiHc-12" target="qHsrdiLQJ5oVwHGukiHc-13">
          <mxGeometry relative="1" as="geometry" />
        </mxCell>
        <mxCell id="qHsrdiLQJ5oVwHGukiHc-12" value="" style="ellipse;whiteSpace=wrap;html=1;fillColor=#330000;" vertex="1" parent="1">
          <mxGeometry x="219.99" y="-130" width="20" height="20" as="geometry" />
        </mxCell>
        <mxCell id="qHsrdiLQJ5oVwHGukiHc-30" style="edgeStyle=orthogonalEdgeStyle;rounded=0;orthogonalLoop=1;jettySize=auto;html=1;" edge="1" parent="1" source="qHsrdiLQJ5oVwHGukiHc-13" target="qHsrdiLQJ5oVwHGukiHc-14">
          <mxGeometry relative="1" as="geometry" />
        </mxCell>
        <mxCell id="qHsrdiLQJ5oVwHGukiHc-13" value="Запуск CLI" style="rounded=1;whiteSpace=wrap;html=1;" vertex="1" parent="1">
          <mxGeometry x="139.99" y="-80" width="180" height="30" as="geometry" />
        </mxCell>
        <mxCell id="qHsrdiLQJ5oVwHGukiHc-31" style="edgeStyle=orthogonalEdgeStyle;rounded=0;orthogonalLoop=1;jettySize=auto;html=1;entryX=0.5;entryY=0;entryDx=0;entryDy=0;" edge="1" parent="1" source="qHsrdiLQJ5oVwHGukiHc-14" target="qHsrdiLQJ5oVwHGukiHc-16">
          <mxGeometry relative="1" as="geometry" />
        </mxCell>
        <mxCell id="qHsrdiLQJ5oVwHGukiHc-14" value="Запуск процессоров" style="rounded=1;whiteSpace=wrap;html=1;" vertex="1" parent="1">
          <mxGeometry x="139.99" y="-30" width="180" height="30" as="geometry" />
        </mxCell>
        <mxCell id="qHsrdiLQJ5oVwHGukiHc-54" style="edgeStyle=orthogonalEdgeStyle;rounded=0;orthogonalLoop=1;jettySize=auto;html=1;" edge="1" parent="1" source="qHsrdiLQJ5oVwHGukiHc-15" target="qHsrdiLQJ5oVwHGukiHc-52">
          <mxGeometry relative="1" as="geometry" />
        </mxCell>
        <mxCell id="qHsrdiLQJ5oVwHGukiHc-15" value="Запрос пачки ID" style="rounded=1;whiteSpace=wrap;html=1;" vertex="1" parent="1">
          <mxGeometry x="140" y="120" width="180" height="30" as="geometry" />
        </mxCell>
        <mxCell id="qHsrdiLQJ5oVwHGukiHc-28" style="edgeStyle=orthogonalEdgeStyle;rounded=0;orthogonalLoop=1;jettySize=auto;html=1;entryX=0.5;entryY=0;entryDx=0;entryDy=0;" edge="1" parent="1" source="qHsrdiLQJ5oVwHGukiHc-16" target="qHsrdiLQJ5oVwHGukiHc-21">
          <mxGeometry relative="1" as="geometry" />
        </mxCell>
        <mxCell id="qHsrdiLQJ5oVwHGukiHc-62" style="edgeStyle=orthogonalEdgeStyle;rounded=0;orthogonalLoop=1;jettySize=auto;html=1;" edge="1" parent="1" source="qHsrdiLQJ5oVwHGukiHc-16" target="C-vyLk0tnHw3VtMMgP7b-6">
          <mxGeometry relative="1" as="geometry">
            <Array as="points">
              <mxPoint x="620" y="35" />
              <mxPoint x="620" y="130" />
            </Array>
          </mxGeometry>
        </mxCell>
        <mxCell id="qHsrdiLQJ5oVwHGukiHc-16" value="Подключение к шардам" style="rounded=1;whiteSpace=wrap;html=1;" vertex="1" parent="1">
          <mxGeometry x="139.99" y="20" width="180" height="30" as="geometry" />
        </mxCell>
        <mxCell id="qHsrdiLQJ5oVwHGukiHc-24" style="edgeStyle=orthogonalEdgeStyle;rounded=0;orthogonalLoop=1;jettySize=auto;html=1;entryX=0.5;entryY=0;entryDx=0;entryDy=0;" edge="1" parent="1" source="qHsrdiLQJ5oVwHGukiHc-19" target="qHsrdiLQJ5oVwHGukiHc-22">
          <mxGeometry relative="1" as="geometry">
            <Array as="points">
              <mxPoint x="98" y="325" />
            </Array>
          </mxGeometry>
        </mxCell>
        <mxCell id="qHsrdiLQJ5oVwHGukiHc-32" value="root" style="edgeLabel;html=1;align=center;verticalAlign=middle;resizable=0;points=[];" vertex="1" connectable="0" parent="qHsrdiLQJ5oVwHGukiHc-24">
          <mxGeometry x="-0.322" relative="1" as="geometry">
            <mxPoint as="offset" />
          </mxGeometry>
        </mxCell>
        <mxCell id="qHsrdiLQJ5oVwHGukiHc-25" style="edgeStyle=orthogonalEdgeStyle;rounded=0;orthogonalLoop=1;jettySize=auto;html=1;" edge="1" parent="1" source="qHsrdiLQJ5oVwHGukiHc-19" target="qHsrdiLQJ5oVwHGukiHc-23">
          <mxGeometry relative="1" as="geometry" />
        </mxCell>
        <mxCell id="qHsrdiLQJ5oVwHGukiHc-33" value="non-root" style="edgeLabel;html=1;align=center;verticalAlign=middle;resizable=0;points=[];" vertex="1" connectable="0" parent="qHsrdiLQJ5oVwHGukiHc-25">
          <mxGeometry x="-0.606" relative="1" as="geometry">
            <mxPoint as="offset" />
          </mxGeometry>
        </mxCell>
        <mxCell id="qHsrdiLQJ5oVwHGukiHc-19" value="" style="html=1;whiteSpace=wrap;aspect=fixed;shape=isoRectangle;" vertex="1" parent="1">
          <mxGeometry x="188.32999999999998" y="300" width="83.33" height="50" as="geometry" />
        </mxCell>
        <mxCell id="qHsrdiLQJ5oVwHGukiHc-27" style="edgeStyle=orthogonalEdgeStyle;rounded=0;orthogonalLoop=1;jettySize=auto;html=1;entryX=0.5;entryY=0;entryDx=0;entryDy=0;" edge="1" parent="1" source="qHsrdiLQJ5oVwHGukiHc-21">
          <mxGeometry relative="1" as="geometry">
            <mxPoint x="229.99000000000046" y="120" as="targetPoint" />
          </mxGeometry>
        </mxCell>
        <mxCell id="qHsrdiLQJ5oVwHGukiHc-21" value="Подключение к провайдеру ID" style="rounded=1;whiteSpace=wrap;html=1;" vertex="1" parent="1">
          <mxGeometry x="139.99" y="70" width="180" height="30" as="geometry" />
        </mxCell>
        <mxCell id="qHsrdiLQJ5oVwHGukiHc-35" style="edgeStyle=orthogonalEdgeStyle;rounded=0;orthogonalLoop=1;jettySize=auto;html=1;entryX=0.5;entryY=0;entryDx=0;entryDy=0;" edge="1" parent="1" source="qHsrdiLQJ5oVwHGukiHc-22" target="qHsrdiLQJ5oVwHGukiHc-34">
          <mxGeometry relative="1" as="geometry" />
        </mxCell>
        <mxCell id="qHsrdiLQJ5oVwHGukiHc-22" value="Ожидание команды от пользователя" style="rounded=1;whiteSpace=wrap;html=1;" vertex="1" parent="1">
          <mxGeometry x="8.33" y="410" width="180" height="40" as="geometry" />
        </mxCell>
        <mxCell id="qHsrdiLQJ5oVwHGukiHc-42" style="edgeStyle=orthogonalEdgeStyle;rounded=0;orthogonalLoop=1;jettySize=auto;html=1;" edge="1" parent="1" source="qHsrdiLQJ5oVwHGukiHc-23" target="qHsrdiLQJ5oVwHGukiHc-37">
          <mxGeometry relative="1" as="geometry" />
        </mxCell>
        <mxCell id="qHsrdiLQJ5oVwHGukiHc-43" value="Команда получена" style="edgeLabel;html=1;align=center;verticalAlign=middle;resizable=0;points=[];" vertex="1" connectable="0" parent="qHsrdiLQJ5oVwHGukiHc-42">
          <mxGeometry x="-0.1664" y="-1" relative="1" as="geometry">
            <mxPoint as="offset" />
          </mxGeometry>
        </mxCell>
        <mxCell id="qHsrdiLQJ5oVwHGukiHc-23" value="Ожидание команды от root" style="rounded=1;whiteSpace=wrap;html=1;" vertex="1" parent="1">
          <mxGeometry x="271.65999999999997" y="410" width="180" height="30" as="geometry" />
        </mxCell>
        <mxCell id="qHsrdiLQJ5oVwHGukiHc-44" style="edgeStyle=orthogonalEdgeStyle;rounded=0;orthogonalLoop=1;jettySize=auto;html=1;entryX=0.5;entryY=0;entryDx=0;entryDy=0;" edge="1" parent="1" source="qHsrdiLQJ5oVwHGukiHc-34" target="qHsrdiLQJ5oVwHGukiHc-36">
          <mxGeometry relative="1" as="geometry" />
        </mxCell>
        <mxCell id="qHsrdiLQJ5oVwHGukiHc-34" value="Обработка команды" style="rounded=1;whiteSpace=wrap;html=1;" vertex="1" parent="1">
          <mxGeometry x="8.329999999999998" y="480" width="180" height="40" as="geometry" />
        </mxCell>
        <mxCell id="qHsrdiLQJ5oVwHGukiHc-36" value="Пересылка команды в non-root" style="rounded=1;whiteSpace=wrap;html=1;" vertex="1" parent="1">
          <mxGeometry x="8.329999999999998" y="540" width="180" height="40" as="geometry" />
        </mxCell>
        <mxCell id="qHsrdiLQJ5oVwHGukiHc-46" style="edgeStyle=orthogonalEdgeStyle;rounded=0;orthogonalLoop=1;jettySize=auto;html=1;entryX=0.5;entryY=0;entryDx=0;entryDy=0;" edge="1" parent="1" source="qHsrdiLQJ5oVwHGukiHc-37" target="qHsrdiLQJ5oVwHGukiHc-45">
          <mxGeometry relative="1" as="geometry" />
        </mxCell>
        <mxCell id="qHsrdiLQJ5oVwHGukiHc-73" style="edgeStyle=orthogonalEdgeStyle;rounded=0;orthogonalLoop=1;jettySize=auto;html=1;" edge="1" parent="1" source="qHsrdiLQJ5oVwHGukiHc-37" target="qHsrdiLQJ5oVwHGukiHc-63">
          <mxGeometry relative="1" as="geometry">
            <Array as="points">
              <mxPoint x="750" y="625" />
            </Array>
          </mxGeometry>
        </mxCell>
        <mxCell id="qHsrdiLQJ5oVwHGukiHc-74" value="Команда Exit" style="edgeLabel;html=1;align=center;verticalAlign=middle;resizable=0;points=[];" vertex="1" connectable="0" parent="qHsrdiLQJ5oVwHGukiHc-73">
          <mxGeometry x="-0.5163" y="-1" relative="1" as="geometry">
            <mxPoint x="-21" y="-1" as="offset" />
          </mxGeometry>
        </mxCell>
        <mxCell id="qHsrdiLQJ5oVwHGukiHc-37" value="" style="html=1;whiteSpace=wrap;aspect=fixed;shape=isoRectangle;" vertex="1" parent="1">
          <mxGeometry x="319.99" y="600" width="83.33" height="50" as="geometry" />
        </mxCell>
        <mxCell id="qHsrdiLQJ5oVwHGukiHc-40" style="edgeStyle=orthogonalEdgeStyle;rounded=0;orthogonalLoop=1;jettySize=auto;html=1;entryX=0.019;entryY=0.5;entryDx=0;entryDy=0;entryPerimeter=0;" edge="1" parent="1" source="qHsrdiLQJ5oVwHGukiHc-36" target="qHsrdiLQJ5oVwHGukiHc-37">
          <mxGeometry relative="1" as="geometry">
            <Array as="points">
              <mxPoint x="98" y="625" />
            </Array>
          </mxGeometry>
        </mxCell>
        <mxCell id="qHsrdiLQJ5oVwHGukiHc-49" style="edgeStyle=orthogonalEdgeStyle;rounded=0;orthogonalLoop=1;jettySize=auto;html=1;entryX=0.5;entryY=0;entryDx=0;entryDy=0;" edge="1" parent="1" source="qHsrdiLQJ5oVwHGukiHc-45" target="qHsrdiLQJ5oVwHGukiHc-47">
          <mxGeometry relative="1" as="geometry" />
        </mxCell>
        <mxCell id="qHsrdiLQJ5oVwHGukiHc-45" value="Выполнение команды" style="rounded=1;whiteSpace=wrap;html=1;" vertex="1" parent="1">
          <mxGeometry x="271.66" y="690" width="180" height="40" as="geometry" />
        </mxCell>
        <mxCell id="qHsrdiLQJ5oVwHGukiHc-50" style="edgeStyle=orthogonalEdgeStyle;rounded=0;orthogonalLoop=1;jettySize=auto;html=1;" edge="1" parent="1" source="qHsrdiLQJ5oVwHGukiHc-47" target="qHsrdiLQJ5oVwHGukiHc-48">
          <mxGeometry relative="1" as="geometry" />
        </mxCell>
        <mxCell id="qHsrdiLQJ5oVwHGukiHc-47" value="Вывод результатов" style="rounded=1;whiteSpace=wrap;html=1;" vertex="1" parent="1">
          <mxGeometry x="271.66" y="750" width="180" height="40" as="geometry" />
        </mxCell>
        <mxCell id="qHsrdiLQJ5oVwHGukiHc-48" value="Возврат в цикл" style="rounded=1;whiteSpace=wrap;html=1;" vertex="1" parent="1">
          <mxGeometry x="271.66" y="810" width="180" height="40" as="geometry" />
        </mxCell>
        <mxCell id="qHsrdiLQJ5oVwHGukiHc-52" value="Вход в цикл" style="html=1;whiteSpace=wrap;aspect=fixed;shape=isoRectangle;" vertex="1" parent="1">
          <mxGeometry x="188.33" y="190" width="83.33" height="50" as="geometry" />
        </mxCell>
        <mxCell id="qHsrdiLQJ5oVwHGukiHc-55" style="edgeStyle=orthogonalEdgeStyle;rounded=0;orthogonalLoop=1;jettySize=auto;html=1;entryX=0.499;entryY=0.082;entryDx=0;entryDy=0;entryPerimeter=0;" edge="1" parent="1" source="qHsrdiLQJ5oVwHGukiHc-52" target="qHsrdiLQJ5oVwHGukiHc-19">
          <mxGeometry relative="1" as="geometry" />
        </mxCell>
        <mxCell id="qHsrdiLQJ5oVwHGukiHc-56" style="edgeStyle=orthogonalEdgeStyle;rounded=0;orthogonalLoop=1;jettySize=auto;html=1;entryX=0.928;entryY=0.539;entryDx=0;entryDy=0;entryPerimeter=0;" edge="1" parent="1" source="qHsrdiLQJ5oVwHGukiHc-48" target="qHsrdiLQJ5oVwHGukiHc-52">
          <mxGeometry relative="1" as="geometry">
            <Array as="points">
              <mxPoint x="520" y="830" />
              <mxPoint x="520" y="217" />
            </Array>
          </mxGeometry>
        </mxCell>
        <mxCell id="qHsrdiLQJ5oVwHGukiHc-59" value="Parallel" style="text;strokeColor=none;fillColor=none;align=left;verticalAlign=middle;spacingLeft=4;spacingRight=4;overflow=hidden;points=[[0,0.5],[1,0.5]];portConstraint=eastwest;rotatable=0;whiteSpace=wrap;html=1;" vertex="1" parent="1">
          <mxGeometry x="40" y="10" width="80" height="30" as="geometry" />
        </mxCell>
        <mxCell id="qHsrdiLQJ5oVwHGukiHc-60" value="Main loop" style="text;strokeColor=none;fillColor=none;align=left;verticalAlign=middle;spacingLeft=4;spacingRight=4;overflow=hidden;points=[[0,0.5],[1,0.5]];portConstraint=eastwest;rotatable=0;whiteSpace=wrap;html=1;" vertex="1" parent="1">
          <mxGeometry x="370" y="270" width="80" height="30" as="geometry" />
        </mxCell>
        <mxCell id="qHsrdiLQJ5oVwHGukiHc-61" style="edgeStyle=orthogonalEdgeStyle;rounded=0;orthogonalLoop=1;jettySize=auto;html=1;entryX=-0.006;entryY=0.05;entryDx=0;entryDy=0;entryPerimeter=0;" edge="1" parent="1" source="qHsrdiLQJ5oVwHGukiHc-21" target="qHsrdiLQJ5oVwHGukiHc-6">
          <mxGeometry relative="1" as="geometry">
            <Array as="points">
              <mxPoint x="600" y="85" />
              <mxPoint x="600" y="302" />
            </Array>
          </mxGeometry>
        </mxCell>
        <mxCell id="qHsrdiLQJ5oVwHGukiHc-72" style="edgeStyle=orthogonalEdgeStyle;rounded=0;orthogonalLoop=1;jettySize=auto;html=1;" edge="1" parent="1" source="qHsrdiLQJ5oVwHGukiHc-63" target="qHsrdiLQJ5oVwHGukiHc-64">
          <mxGeometry relative="1" as="geometry" />
        </mxCell>
        <mxCell id="qHsrdiLQJ5oVwHGukiHc-63" value="Освобождение ресурсов" style="rounded=1;whiteSpace=wrap;html=1;" vertex="1" parent="1">
          <mxGeometry x="660" y="640" width="180" height="40" as="geometry" />
        </mxCell>
        <mxCell id="qHsrdiLQJ5oVwHGukiHc-71" style="edgeStyle=orthogonalEdgeStyle;rounded=0;orthogonalLoop=1;jettySize=auto;html=1;" edge="1" parent="1" source="qHsrdiLQJ5oVwHGukiHc-64" target="qHsrdiLQJ5oVwHGukiHc-66">
          <mxGeometry relative="1" as="geometry" />
        </mxCell>
        <mxCell id="qHsrdiLQJ5oVwHGukiHc-64" value="Выход" style="rounded=1;whiteSpace=wrap;html=1;" vertex="1" parent="1">
          <mxGeometry x="660" y="710" width="180" height="40" as="geometry" />
        </mxCell>
        <mxCell id="qHsrdiLQJ5oVwHGukiHc-68" value="" style="group" vertex="1" connectable="0" parent="1">
          <mxGeometry x="735" y="810" width="30" height="30" as="geometry" />
        </mxCell>
        <mxCell id="qHsrdiLQJ5oVwHGukiHc-65" value="" style="ellipse;whiteSpace=wrap;html=1;fillColor=#330000;" vertex="1" parent="qHsrdiLQJ5oVwHGukiHc-68">
          <mxGeometry x="5" y="5" width="20" height="20" as="geometry" />
        </mxCell>
        <mxCell id="qHsrdiLQJ5oVwHGukiHc-66" value="" style="ellipse;whiteSpace=wrap;html=1;aspect=fixed;fillColor=none;" vertex="1" parent="qHsrdiLQJ5oVwHGukiHc-68">
          <mxGeometry width="30" height="30" as="geometry" />
        </mxCell>
      </root>
    </mxGraphModel>
  </diagram>
</mxfile>
